<?xml version="1.0" encoding="UTF-8"?>
<svg width="30px" height="30px" viewBox="0 0 30 30" version="1.1" xmlns="http://www.w3.org/2000/svg" xmlns:xlink="http://www.w3.org/1999/xlink">
    <!-- Generator: Sketch 64 (93537) - https://sketch.com -->
    <title>aws</title>
    <desc>Created with Sketch.</desc>
    <g id="Icons" stroke="none" stroke-width="1" fill="none" fill-rule="evenodd">
        <g id="aws">
            <rect id="Bg" fill-opacity="0.00001" fill="#000000" x="0" y="0" width="30" height="30"></rect>
            <path d="M8.1821192,14.486755 C8.1821192,14.8543046 8.2218543,15.1523179 8.29139072,15.3708609 C8.37086092,15.589404 8.47019867,15.8278146 8.60927152,16.0860927 C8.6589404,16.1655629 8.67880795,16.2450331 8.67880795,16.3145695 C8.67880795,16.4139073 8.61920529,16.513245 8.49006621,16.6125828 L7.86423841,17.0298013 C7.77483443,17.089404 7.68543046,17.1192053 7.60596026,17.1192053 C7.50662252,17.1192053 7.40728477,17.0695364 7.30794701,16.9801325 C7.16887417,16.8311258 7.04966887,16.6721854 6.95033112,16.513245 C6.85099338,16.3443709 6.75165563,16.1556291 6.6423841,15.9271523 C5.86754966,16.8410596 4.89403973,17.2980132 3.7218543,17.2980132 C2.88741721,17.2980132 2.2218543,17.0596027 1.73509933,16.5827815 C1.24834437,16.1059603 1,15.4701987 1,14.6754967 C1,13.8311258 1.29801324,13.1456954 1.9039735,12.6291391 C2.50993377,12.1125828 3.31456953,11.8543046 4.33774834,11.8543046 C4.67549669,11.8543046 5.0231788,11.884106 5.39072847,11.9337748 C5.75827814,11.9834437 6.13576158,12.0629139 6.53311258,12.1523179 L6.53311258,11.4271523 C6.53311258,10.6721854 6.37417218,10.1456954 6.06622516,9.83774834 C5.74834437,9.52980132 5.21192052,9.38079471 4.44701986,9.38079471 C4.09933775,9.38079471 3.74172186,9.4205298 3.37417218,9.50993377 C3.00662252,9.59933774 2.64900661,9.70860928 2.3013245,9.84768212 C2.1423841,9.91721854 2.0231788,9.95695365 1.95364238,9.97682119 C1.88410595,9.99668874 1.83443709,10.0066225 1.79470198,10.0066225 C1.65562913,10.0066225 1.58609271,9.90728477 1.58609271,9.6986755 L1.58609271,9.21192053 C1.58609271,9.05298013 1.60596026,8.93377483 1.65562913,8.86423841 C1.70529801,8.79470199 1.79470198,8.72516556 1.93377483,8.65562914 C2.28145695,8.47682119 2.69867549,8.32781457 3.18543046,8.20860927 C3.67218543,8.0794702 4.18874172,8.01986755 4.73509933,8.01986755 C5.91721854,8.01986755 6.78145695,8.28807947 7.33774834,8.82450331 C7.88410595,9.36092715 8.16225166,10.1754967 8.16225166,11.2682119 L8.16225166,14.486755 L8.1821192,14.486755 Z M4.14900661,15.9966887 C4.47682118,15.9966887 4.81456953,15.9370861 5.17218543,15.8178808 C5.52980132,15.6986755 5.84768212,15.4801325 6.11589404,15.1821192 C6.27483443,14.9933775 6.39403973,14.7847682 6.45364238,14.5463576 C6.51324503,14.307947 6.55298013,14.0198675 6.55298013,13.6821192 L6.55298013,13.2649007 C6.26490066,13.1953642 5.95695364,13.1357616 5.63907284,13.0960265 C5.32119204,13.0562914 5.01324503,13.0364238 4.70529801,13.0364238 C4.03973509,13.0364238 3.55298013,13.1655629 3.22516555,13.4337748 C2.89735098,13.7019868 2.73841059,14.0794702 2.73841059,14.5761589 C2.73841059,15.0430464 2.85761589,15.3907285 3.10596026,15.6291391 C3.34437086,15.8774834 3.69205298,15.9966887 4.14900661,15.9966887 Z M12.1258278,17.0695364 C11.9470198,17.0695364 11.8278146,17.0397351 11.7483444,16.9701987 C11.6688741,16.910596 11.5993378,16.7715232 11.5397351,16.5827815 L9.20529801,8.90397351 C9.14569536,8.70529801 9.11589404,8.57615894 9.11589404,8.50662252 C9.11589404,8.34768212 9.19536423,8.25827815 9.35430463,8.25827815 L10.3278146,8.25827815 C10.5165563,8.25827815 10.6456954,8.28807947 10.7152318,8.35761589 C10.794702,8.41721854 10.8543046,8.55629139 10.9139073,8.74503311 L12.5827815,15.3211921 L14.1324503,8.74503311 C14.1821192,8.54635762 14.2417218,8.41721854 14.3211921,8.35761589 C14.4006623,8.29801325 14.5397351,8.25827815 14.718543,8.25827815 L15.513245,8.25827815 C15.7019867,8.25827815 15.8311258,8.28807947 15.910596,8.35761589 C15.9900663,8.41721854 16.0596026,8.55629139 16.0993378,8.74503311 L17.6688741,15.4006623 L19.3874172,8.74503311 C19.4470198,8.54635762 19.5165563,8.41721854 19.5860927,8.35761589 C19.6655629,8.29801325 19.794702,8.25827815 19.97351,8.25827815 L20.897351,8.25827815 C21.0562914,8.25827815 21.1456954,8.33774834 21.1456954,8.50662252 C21.1456954,8.55629139 21.1357615,8.60596027 21.1258278,8.66556291 C21.115894,8.72516556 21.0960264,8.80463576 21.0562914,8.91390728 L18.6622517,16.5927152 C18.602649,16.7913907 18.5331126,16.9205298 18.4536424,16.9801325 C18.3741721,17.0397351 18.2450331,17.0794702 18.0761589,17.0794702 L17.2218543,17.0794702 C17.0331126,17.0794702 16.9039735,17.0496689 16.8245033,16.9801325 C16.7450331,16.910596 16.6754967,16.7814569 16.6357615,16.5827815 L15.0960264,10.1754967 L13.5662252,16.5728477 C13.5165563,16.7715232 13.4569537,16.9006623 13.3774835,16.9701987 C13.2980132,17.0397351 13.1589404,17.0695364 12.9801324,17.0695364 L12.1258278,17.0695364 Z M24.8907284,17.3377483 C24.3741721,17.3377483 23.8576158,17.2781457 23.3609272,17.1589404 C22.8642384,17.0397351 22.4768212,16.910596 22.218543,16.7615894 C22.0596026,16.6721854 21.9503312,16.5728477 21.910596,16.4834437 C21.8708609,16.3940397 21.8509934,16.294702 21.8509934,16.205298 L21.8509934,15.6986755 C21.8509934,15.4900662 21.9304635,15.3907285 22.0794701,15.3907285 C22.1390729,15.3907285 22.1986755,15.4006623 22.2582781,15.4205298 C22.3178808,15.4403973 22.4072847,15.4801325 22.5066226,15.5198675 C22.8443709,15.6688742 23.2119206,15.7880795 23.5993378,15.8675497 C23.9966887,15.9470199 24.384106,15.986755 24.7814569,15.986755 C25.4072847,15.986755 25.8940398,15.8774834 26.2317881,15.6589404 C26.5695364,15.4403973 26.7483444,15.1225166 26.7483444,14.7152318 C26.7483444,14.4370861 26.6589404,14.2086093 26.4801324,14.0198675 C26.3013246,13.8311258 25.9635761,13.6622517 25.4768212,13.5033113 L24.0364238,13.0562914 C23.3112583,12.8278146 22.7748344,12.4900662 22.4470198,12.0430464 C22.1192053,11.6059603 21.9503312,11.1192053 21.9503312,10.602649 C21.9503312,10.1854305 22.0397351,9.8178808 22.218543,9.5 C22.397351,9.1821192 22.6357615,8.90397351 22.9337749,8.68543046 C23.2317881,8.45695364 23.5695364,8.28807947 23.9668874,8.16887417 C24.3642384,8.04966887 24.7814569,8 25.218543,8 C25.4370861,8 25.6655629,8.00993377 25.884106,8.0397351 C26.1125827,8.06953642 26.3211921,8.10927152 26.5298013,8.14900662 C26.7284769,8.1986755 26.9172186,8.24834437 27.0960264,8.30794702 C27.2748344,8.36754967 27.4139073,8.42715232 27.513245,8.48675497 C27.6523178,8.56622517 27.7516556,8.64569536 27.8112583,8.73509934 C27.8708609,8.81456954 27.9006623,8.92384106 27.9006623,9.06291391 L27.9006623,9.52980132 C27.9006623,9.7384106 27.8211921,9.84768212 27.6721855,9.84768212 C27.5927152,9.84768212 27.4635761,9.80794702 27.294702,9.72847682 C26.7284769,9.47019868 26.0927152,9.3410596 25.3874172,9.3410596 C24.8211921,9.3410596 24.3741721,9.43046357 24.0662252,9.6192053 C23.7582781,9.80794702 23.5993378,10.0960265 23.5993378,10.5033113 C23.5993378,10.7814569 23.6986755,11.0198675 23.897351,11.2086093 C24.0960264,11.397351 24.4635761,11.5860927 24.9900663,11.7549669 L26.4006623,12.2019868 C27.115894,12.4304636 27.6324503,12.7483444 27.9403973,13.1556291 C28.2483444,13.5629139 28.397351,14.0298013 28.397351,14.5463576 C28.397351,14.9735099 28.307947,15.3609271 28.1390729,15.6986755 C27.9602649,16.0364238 27.7218543,16.3344371 27.4139073,16.5728477 C27.1059603,16.8211921 26.7384106,17 26.3112583,17.1291391 C25.8642384,17.2682119 25.397351,17.3377483 24.8907284,17.3377483 Z" id="Shape" fill="#FFFFFF" fill-rule="nonzero"></path>
            <path d="M27.0031804,22.0305715 C23.7349686,24.4444789 18.9866242,25.7259358 14.9038427,25.7259358 C9.18198845,25.7259358 4.02635931,23.6100417 0.132319575,20.0934855 C-0.175627445,19.8153398 0.10251825,19.4378563 0.470067919,19.6563994 C4.68198845,22.100108 9.87735268,23.5802404 15.2515249,23.5802404 C18.8773527,23.5802404 22.8607964,22.8252735 26.5263593,21.2756046 C27.0727169,21.0272603 27.5396044,21.6332206 27.0031804,22.0305715 Z M28.3641077,20.4809026 C27.9468892,19.9444789 25.6025183,20.2226246 24.5396044,20.3517637 C24.2217235,20.3914987 24.1720547,20.1133531 24.4601341,19.9047437 C26.3276838,18.5934855 29.3972203,18.9709689 29.7548361,19.408055 C30.112452,19.8550749 29.6554984,22.9246112 27.907154,24.39481 C27.6389421,24.6232868 27.380664,24.5040815 27.4998692,24.2060683 C27.8972203,23.2226246 28.7813261,21.0073928 28.3641077,20.4809026 Z" id="Shape" fill="#FFFFFF" fill-rule="nonzero"></path>
        </g>
    </g>
</svg>