<?xml version="1.0" encoding="UTF-8"?>
<svg width="30px" height="30px" viewBox="0 0 30 30" version="1.1" xmlns="http://www.w3.org/2000/svg" xmlns:xlink="http://www.w3.org/1999/xlink">
    <!-- Generator: Sketch 64 (93537) - https://sketch.com -->
    <title>nodejs</title>
    <desc>Created with Sketch.</desc>
    <g id="Icons" stroke="none" stroke-width="1" fill="none" fill-rule="evenodd">
        <g id="nodejs">
            <rect id="Bg" fill-opacity="0.00001" fill="#000000" x="0" y="0" width="30" height="30"></rect>
            <path d="M13.7366775,0.320020408 C14.5017516,-0.105711425 15.4982601,-0.10763443 16.2626748,0.320020408 C20.1083756,2.4325477 23.9552852,4.54176316 27.8003266,6.65557246 C28.5235315,7.05160456 29.0072799,7.83405373 29,8.6441728 L29,21.3539507 C29.0053019,22.1976155 28.4737501,22.9987605 27.7107639,23.3858186 C23.8777008,25.486701 20.0466158,27.5901475 16.2142121,29.6910299 C15.4333134,30.1250948 14.4168044,30.0916559 13.6603019,29.6220154 C12.5111523,28.9743902 11.3600245,28.3299701 10.210765,27.6829859 C9.9759239,27.5468799 9.711192,27.4385506 9.54536366,27.2171914 C9.69196074,27.0251047 9.95405522,27.0011739 10.1670276,26.9173096 C10.6467099,26.7690245 11.0872704,26.5309993 11.5279408,26.3000251 C11.6393722,26.2258826 11.7754195,26.2543003 11.8822354,26.320644 C12.8648974,26.8683798 13.8388778,27.4320338 14.8248366,27.9745347 C15.0351716,28.0925858 15.2481439,27.935861 15.4279287,27.8384287 C19.1893416,25.771733 22.95537,23.7128362 26.7161236,21.6454995 C26.8554678,21.580331 26.9325027,21.436533 26.9211837,21.2881412 C26.9238211,17.0954572 26.9218431,12.9020253 26.9225024,8.70934129 C26.9384369,8.54097156 26.8382146,8.38616969 26.6816173,8.31726203 C22.8618512,6.22599462 19.0440632,4.1315222 15.2249565,2.03972062 C15.0895172,1.94919977 14.9107669,1.9489451 14.7750552,2.03907961 C10.9559485,4.1315222 7.13881984,6.22791762 3.31971315,8.3190782 C3.16366528,8.3880927 3.05893739,8.54033055 3.07750928,8.70934129 C3.07816864,12.9020253 3.07750928,17.0954572 3.07750928,21.2887822 C3.06394594,21.4370735 3.14682652,21.577885 3.28520679,21.6416535 C4.30435321,22.2034913 5.32481834,22.7613763 6.34462412,23.3212911 C6.91914401,23.6219208 7.6245463,23.8005466 8.25752919,23.5702134 C8.81611462,23.3754557 9.20766289,22.8213099 9.19700329,22.2447291 C9.20227814,18.07651 9.19436586,13.9076498 9.20095943,9.74007171 C9.18700304,9.55503594 9.36755701,9.40215708 9.55261659,9.41957095 C10.0422992,9.41636595 10.5326412,9.41316094 11.0223238,9.42085296 C11.2267245,9.41636595 11.3673873,9.61561058 11.342112,9.80203519 C11.3401339,13.9966422 11.3473868,18.1913561 11.3388152,22.3859631 C11.3401339,23.5038697 10.8677045,24.7202769 9.80405146,25.2672649 C8.49368896,25.9271759 6.87408793,25.7872239 5.57955,25.1544486 C4.45886258,24.6106656 3.38938523,23.9689163 2.28858841,23.3863528 C1.52362419,23.0014314 0.994709835,22.1970813 1,21.3540575 L1,8.6441728 C0.992072406,7.81728086 1.49505204,7.02062282 2.24078502,6.63035973 C6.07318874,4.52776796 9.90493311,2.42357368 13.7366775,0.320020408 Z" id="Path" fill="#FFFFFF" fill-rule="nonzero"></path>
            <path d="M16.6723543,9.12417609 C18.3584272,9.01958601 20.1634454,9.06221261 21.6806894,9.86271666 C22.8553978,10.4761551 23.5066587,11.7636066 23.5273882,13.0213584 C23.4945757,13.1910101 23.3105599,13.2845964 23.1425069,13.2729515 C22.6533129,13.2723105 22.1640081,13.2793615 21.6748141,13.2697465 C21.4672975,13.2774385 21.3466895,13.0930438 21.3206391,12.9162342 C21.1800775,12.3144406 20.8395374,11.718416 20.2517952,11.4281492 C19.3495632,10.9928023 18.3034442,11.0147032 17.3196245,11.0237841 C16.6014084,11.0605348 15.8290961,11.1204685 15.2206244,11.5275044 C14.7534902,11.8358261 14.6115984,12.4582386 14.7783212,12.9595018 C14.9355107,13.3194241 15.3666177,13.4355522 15.7193517,13.5425995 C17.7512858,14.0547597 19.904493,14.0038001 21.8976285,14.6778131 C22.7228177,14.9525891 23.5300487,15.486757 23.8125019,16.319418 C24.1819747,17.4354016 24.0200186,18.7693258 23.1961597,19.6652322 C22.5280491,20.4024908 21.5549821,20.8037577 20.5844648,21.0216982 C19.2933608,21.299145 17.9534815,21.306196 16.6423131,21.1830169 C15.4094069,21.0475519 14.1263952,20.7353842 13.174612,19.9257993 C12.3607298,19.2447352 11.9632112,18.1835572 12.0026749,17.1593436 C12.0120974,16.9863801 12.1907923,16.8657649 12.3627252,16.8799738 C12.8553555,16.8761278 13.3479859,16.8748458 13.8406163,16.8806148 C14.0373803,16.867047 14.1832627,17.0309297 14.1933503,17.2096623 C14.2842497,17.7830381 14.5078401,18.3848317 15.0266318,18.7247761 C16.0278554,19.3472954 17.2841515,19.3046688 18.4305925,19.3220827 C19.3803803,19.281486 20.4465638,19.2692001 21.2216474,18.6642015 C21.6305838,18.319129 21.7517461,17.7418003 21.6412257,17.245131 C21.5215046,16.8258092 21.0663424,16.6304106 20.675475,16.5026376 C18.6695914,15.8911222 16.4923291,16.1130155 14.5058447,15.4214817 C13.6993897,15.1468126 12.9195394,14.6274945 12.6097055,13.8290203 C12.1773791,12.6989347 12.3754732,11.301124 13.2856866,10.4354515 C14.1731751,9.57437282 15.4543023,9.24276137 16.6723543,9.12406926 L16.6723543,9.12417609 Z" id="Path" fill="#FFFFFF" fill-rule="nonzero"></path>
        </g>
    </g>
</svg>