<?xml version="1.0" encoding="UTF-8"?>
<svg width="30px" height="30px" viewBox="0 0 30 30" version="1.1" xmlns="http://www.w3.org/2000/svg" xmlns:xlink="http://www.w3.org/1999/xlink">
    <!-- Generator: Sketch 64 (93537) - https://sketch.com -->
    <title>react</title>
    <desc>Created with Sketch.</desc>
    <g id="Icons" stroke="none" stroke-width="1" fill="none" fill-rule="evenodd">
        <g id="react">
            <rect id="Bg" fill-opacity="0.00001" fill="#000000" x="0" y="0" width="30" height="30"></rect>
            <path d="M30,14.385416 C30,12.3944502 27.5112108,10.5076273 23.6954749,9.337552 C24.5760294,5.44138516 24.1846718,2.34160462 22.4602528,1.34918476 C22.0627803,1.11639492 21.5980432,1.00612605 21.0905014,1.00612605 L21.0905014,2.37223486 C21.3717896,2.37223486 21.5980432,2.4273693 21.787607,2.53151212 C22.6192417,3.00934391 22.9800245,4.82878031 22.6987362,7.16893084 C22.6314717,7.74477939 22.5214024,8.3512582 22.3868732,8.96998909 C21.1883408,8.67593877 19.8797391,8.44927497 18.5038728,8.30224981 C17.678353,7.16893084 16.8222585,6.13975469 15.9600489,5.23922556 C17.9535263,3.38303287 19.8247044,2.36610881 21.0966164,2.36610881 L21.0966164,1 C21.0966164,1 21.0966164,1 21.0966164,1 C19.415002,1 17.213616,2.20070551 14.9877701,4.28356199 C12.7619242,2.2129576 10.5605381,1.02450419 8.87892377,1.02450419 L8.87892377,2.39061301 C10.1447208,2.39061301 12.0220139,3.40141101 14.0154912,5.24535161 C13.1593967,6.14588074 12.3033021,7.16893084 11.4900122,8.30224981 C10.108031,8.44927497 8.79942927,8.67593877 7.60089686,8.97611514 C7.46025275,8.36351029 7.35629841,7.76928359 7.28291887,7.19956108 C6.9955157,4.85941055 7.35018345,3.03997415 8.17570322,2.55601632 C8.35915206,2.44574745 8.59763555,2.39673906 8.87892377,2.39673906 L8.87892377,1.03063024 C8.87892377,1.03063024 8.87892377,1.03063024 8.87892377,1.03063024 C8.36526702,1.03063024 7.90052996,1.14089912 7.49694252,1.37368896 C5.7786384,2.36610881 5.39339584,5.45976331 6.28006523,9.34367805 C2.47655932,10.5198794 0,12.4005763 0,14.385416 C0,16.3763817 2.48878924,18.2632047 6.30452507,19.4332799 C5.42397065,23.3294468 5.81532817,26.4292273 7.53974725,27.4216472 C7.93721973,27.654437 8.40195679,27.7647059 8.91561353,27.7647059 C10.5972279,27.7647059 12.7986139,26.5640004 15.0244598,24.4811439 C17.2503057,26.5517483 19.4516918,27.7402017 21.1333062,27.7402017 C21.6469629,27.7402017 22.1117,27.6299328 22.5152874,27.397143 C24.2335915,26.4047231 24.6188341,23.3110686 23.7321647,19.4271539 C27.5234407,18.2570786 30,16.3702557 30,14.385416 Z M22.0383204,10.2993416 C21.8120669,11.0896019 21.5307786,11.9043663 21.2128007,12.7191308 C20.9620872,12.2290469 20.6991439,11.738963 20.4117407,11.2488791 C20.1304525,10.7587953 19.8308194,10.2809635 19.5311863,9.81538379 C20.3995108,9.94403081 21.2372605,10.1033081 22.0383204,10.2993416 Z M19.2376682,16.8235833 C18.7607012,17.6505998 18.2715043,18.434734 17.7639625,19.1637338 C16.8528333,19.2433724 15.9294741,19.2862548 15,19.2862548 C14.0766408,19.2862548 13.1532817,19.2433724 12.2482674,19.1698598 C11.7407256,18.4408601 11.2454138,17.6628519 10.7684468,16.8419614 C10.3037097,16.0394491 9.88177742,15.2246846 9.49653486,14.4037941 C9.87566245,13.5829036 10.3037097,12.7620131 10.7623318,11.9595008 C11.2392988,11.1324842 11.7284957,10.34835 12.2360375,9.61935023 C13.1471667,9.5397116 14.0705259,9.49682927 15,9.49682927 C15.9233592,9.49682927 16.8467183,9.5397116 17.7517326,9.61322419 C18.2592744,10.342224 18.7545862,11.1202321 19.2315532,11.9411226 C19.6962903,12.743635 20.1182226,13.5583994 20.5034651,14.3792899 C20.1182226,15.2001804 19.6962903,16.0210709 19.2376682,16.8235833 Z M21.2128007,16.027197 C21.5430086,16.8480875 21.8242968,17.668978 22.0566653,18.4653643 C21.2556054,18.6613978 20.4117407,18.8268011 19.5373013,18.9554481 C19.8369344,18.4837424 20.1365675,17.9997846 20.4178557,17.5035747 C20.6991439,17.0134908 20.9620872,16.5172808 21.2128007,16.027197 Z M15.0122299,22.5636907 C14.4435385,21.9755901 13.8748471,21.3201029 13.3122707,20.6033552 C13.8626172,20.6278594 14.4251936,20.6462375 14.993885,20.6462375 C15.5686914,20.6462375 16.1373828,20.6339854 16.6938443,20.6033552 C16.1434978,21.3201029 15.5748064,21.9755901 15.0122299,22.5636907 Z M10.4626987,18.9554481 C9.59437424,18.8268011 8.75662454,18.6675239 7.95556461,18.4714903 C8.18181818,17.6812301 8.4631064,16.8664656 8.78108439,16.0517012 C9.0317978,16.541785 9.29474113,17.0318689 9.58214431,17.5219528 C9.86954749,18.0120367 10.1630656,18.4898685 10.4626987,18.9554481 Z M14.9816551,6.20714122 C15.5503465,6.79524188 16.1190379,7.45072907 16.6816143,8.16747674 C16.1312678,8.14297255 15.5686914,8.1245944 15,8.1245944 C14.4251936,8.1245944 13.8565022,8.1368465 13.3000408,8.16747674 C13.8503873,7.45072907 14.4190787,6.79524188 14.9816551,6.20714122 Z M10.4565838,9.81538379 C10.1569507,10.2870895 9.85731757,10.7710474 9.57602935,11.2672573 C9.29474113,11.7573412 9.0317978,12.247425 8.78108439,12.7375089 C8.45087648,11.9166184 8.16958826,11.0957279 7.93721973,10.2993416 C8.73827966,10.1094341 9.58214431,9.94403081 10.4565838,9.81538379 Z M4.92254382,17.4851965 C2.75784753,16.5601632 1.3575214,15.3472056 1.3575214,14.385416 C1.3575214,13.4236264 2.75784753,12.2045427 4.92254382,11.2856354 C5.44843049,11.0589716 6.02323685,10.856812 6.6163881,10.6669045 C6.96494089,11.86761 7.42356298,13.1173239 7.99225438,14.3976681 C7.42967795,15.6718861 6.97717081,16.915474 6.63473298,18.1100535 C6.02935181,17.9201459 5.45454545,17.7118603 4.92254382,17.4851965 Z M8.21239299,26.2393198 C7.38075826,25.761488 7.01997554,23.9420516 7.30126376,21.6019011 C7.36852833,21.0260525 7.47859764,20.4195737 7.61312678,19.8008428 C8.81165919,20.0948932 10.1202609,20.321557 11.4961272,20.4685821 C12.321647,21.6019011 13.1777415,22.6310772 14.0399511,23.5316064 C12.0464737,25.3877991 10.1752956,26.4047231 8.90338361,26.4047231 C8.62821035,26.3985971 8.39584183,26.3434626 8.21239299,26.2393198 Z M22.7170811,21.5712709 C23.0044843,23.9114214 22.6498166,25.7308578 21.8242968,26.2148156 C21.6408479,26.3250845 21.4023645,26.3740929 21.1210762,26.3740929 C19.8552792,26.3740929 17.9779861,25.3632949 15.9845088,23.5193543 C16.8406033,22.6188251 17.6966979,21.595775 18.5099878,20.4624561 C19.891969,20.3154309 21.2005707,20.0887671 22.3991031,19.7885907 C22.5397472,20.4073216 22.6498166,21.0015483 22.7170811,21.5712709 Z M25.0713412,17.4851965 C24.5454545,17.7118603 23.9706482,17.9140199 23.3774969,18.1039274 C23.0289442,16.9032219 22.5703221,15.653508 22.0016307,14.3731639 C22.5642071,13.0989458 23.0167142,11.8553579 23.3591521,10.6607785 C23.9645332,10.850686 24.5393396,11.0589716 25.0774562,11.2856354 C27.2421525,12.2106687 28.6424786,13.4236264 28.6424786,14.385416 C28.6363636,15.3472056 27.2360375,16.5662892 25.0713412,17.4851965 Z" id="Shape" fill="#FFFFFF" fill-rule="nonzero"></path>
            <circle id="Oval" fill="#FFFFFF" fill-rule="nonzero" cx="14.8529412" cy="14.3823529" r="2.79411765"></circle>
        </g>
    </g>
</svg>