<?xml version="1.0" encoding="UTF-8"?>
<svg width="30px" height="30px" viewBox="0 0 30 30" version="1.1" xmlns="http://www.w3.org/2000/svg" xmlns:xlink="http://www.w3.org/1999/xlink">
    <!-- Generator: Sketch 64 (93537) - https://sketch.com -->
    <title>typescript</title>
    <desc>Created with Sketch.</desc>
    <g id="Icons" stroke="none" stroke-width="1" fill="none" fill-rule="evenodd">
        <g id="typescript">
            <rect id="Bg" fill-opacity="0.00001" fill="#000000" x="0" y="0" width="30" height="30"></rect>
            <path d="M23.0178591,22.773596 C23.8999978,22.5584887 24.5726286,22.1766733 25.1901257,21.5528623 C25.5099009,21.219446 25.9840505,20.611768 26.022644,20.4665706 C26.0336708,20.4235491 24.5230083,19.4340557 23.6077894,18.8801545 C23.5747092,18.8586438 23.4423884,18.9984635 23.2935275,19.2135708 C22.8469448,19.8481372 22.3783086,20.122399 21.6615709,20.1707981 C20.6085178,20.240708 19.9303737,19.7029398 19.9358871,18.804867 C19.9358871,18.5413606 19.9744807,18.3854078 20.084748,18.1703006 C20.3163094,17.7024423 20.746352,17.4228028 22.0971269,16.8527686 C24.5836553,15.8094984 25.6477351,15.1211551 26.3093391,14.1424171 C27.0481303,13.0507477 27.2135313,11.3083789 26.7118149,10.0123577 C26.1604782,8.6034051 24.7931632,7.64617778 22.8689982,7.32889457 C22.2735546,7.22671862 20.8621327,7.24285166 20.2225822,7.35578298 C18.8277004,7.59777865 17.5044923,8.26998884 16.6885141,9.15192861 C16.3687388,9.49610023 15.7457283,10.3941731 15.7843219,10.4587052 C15.800862,10.480216 15.9442095,10.5662589 16.1040972,10.6576794 C16.2584714,10.7437224 16.8428883,11.0717609 17.394225,11.3836665 L18.3921444,11.948323 L18.6016523,11.6471729 C18.8938608,11.2115806 19.5334113,10.614658 19.919347,10.4156838 C21.0275337,9.84564953 22.549223,9.92631476 23.2990408,10.5823919 C23.6188161,10.867409 23.7511369,11.1631815 23.7511369,11.5987737 C23.7511369,11.9913445 23.7015166,12.1634303 23.4920087,12.4592028 C23.2218537,12.8356405 22.670517,13.1529237 21.1047209,13.8143785 C19.3128766,14.5672539 18.5410053,15.0351122 17.8352943,15.7772323 C17.4273052,16.2074468 17.0413695,16.89579 16.8814819,17.471202 C16.7491611,17.9498156 16.7160809,19.1490386 16.8208349,19.63303 C17.1902304,21.321622 18.4968984,22.4993342 20.3824698,22.8488835 C20.9944535,22.9618148 22.4169022,22.9187934 23.0178591,22.773596 Z" id="Path" fill="#FFFFFF" transform="translate(21.391304, 15.086957) scale(1, -1) translate(-21.391304, -15.086957) "></path>
            <path d="M14.9891892,20.984948 L15,19.5907762 L12.7837838,19.5907762 L10.5675676,19.5907762 L10.5675676,13.2953881 L10.5675676,7 L9,7 L7.43243243,7 L7.43243243,13.2953881 L7.43243243,19.5907762 L5.21621622,19.5907762 L3,19.5907762 L3,20.9579291 C3,21.7144565 3.01621622,22.3466972 3.03783784,22.3629085 C3.05405405,22.3845235 5.75135135,22.3953311 9.02162162,22.3899273 L14.972973,22.373716 L14.9891892,20.984948 Z" id="Path" fill="#FFFFFF" transform="translate(9.000000, 14.695652) scale(1, -1) translate(-9.000000, -14.695652) "></path>
        </g>
    </g>
</svg>